HIERARCHY
ROOT reference
{
  OFFSET 0 0 0
  CHANNELS 6 Xposition Yposition Zposition Zrotation Xrotation Yrotation
  JOINT Hips
  {
    OFFSET 356.501 91.4882 232.072
    CHANNELS 3 Zrotation Xrotation Yrotation
    JOINT RightUpLeg
    {
      OFFSET -9.22368 -1.56954 0.0182318
      CHANNELS 3 Zrotation Xrotation Yrotation
      JOINT RightLeg
      {
        OFFSET 0.0168043 -41.8502 0.039304
        CHANNELS 3 Zrotation Xrotation Yrotation
        JOINT RightFoot
        {
          OFFSET -1.24655 -41.4872 1.84727
          CHANNELS 3 Zrotation Xrotation Yrotation
          End Site
          {
            OFFSET 0 -7.69 17.5
          }
        }
      }
    }
    JOINT LeftUpLeg
    {
      OFFSET 9.32755 -1.5915 0.117934
      CHANNELS 3 Zrotation Xrotation Yrotation
      JOINT LeftLeg
      {
        OFFSET 0.115891 -41.8441 0.138627
        CHANNELS 3 Zrotation Xrotation Yrotation
        JOINT LeftFoot
        {
          OFFSET -0.00258131 -42.0603 -2.16995
          CHANNELS 3 Zrotation Xrotation Yrotation
          End Site
          {
            OFFSET 0 -7.69 17.5
          }
        }
      }
    }
    JOINT Spine
    {
      OFFSET 0.0618908 14.3142 0.263402
      CHANNELS 3 Zrotation Xrotation Yrotation
      JOINT Spine1
      {
        OFFSET 0.00953893 9.71784 0.0772804
        CHANNELS 3 Zrotation Xrotation Yrotation
        JOINT Spine2
        {
          OFFSET 0.0659978 10.1164 -0.109334
          CHANNELS 3 Zrotation Xrotation Yrotation
          JOINT Spine3
          {
            OFFSET 0.00354353 9.7233 0.0181573
            CHANNELS 3 Zrotation Xrotation Yrotation
            JOINT Neck
            {
              OFFSET -0.106539 10.3631 0.143191
              CHANNELS 3 Zrotation Xrotation Yrotation
              JOINT Head
              {
                OFFSET 0.0687213 9.49492 0.178169
                CHANNELS 3 Zrotation Xrotation Yrotation
                End Site
                {
                  OFFSET 0 15.95 0
                }
              }
            }
            JOINT RightShoulder
            {
              OFFSET -3.17341 6.93407 0.0508814
              CHANNELS 3 Zrotation Xrotation Yrotation
              JOINT RightArm
              {
                OFFSET -12.8122 0.02699 0.0058978
                CHANNELS 3 Zrotation Xrotation Yrotation
                JOINT RightForeArm
                {
                  OFFSET -26.4689 -0.0132424 0.0432591
                  CHANNELS 3 Zrotation Xrotation Yrotation
                  JOINT RightHand
                  {
                    OFFSET -25.9762 -0.0747187 0.0544432
                    CHANNELS 3 Zrotation Xrotation Yrotation
                    JOINT RightHandThumb1
                    {
                      OFFSET -2.48905 0.190105 3.12053
                      CHANNELS 3 Zrotation Xrotation Yrotation
                      JOINT RightHandThumb2
                      {
                        OFFSET -3.68274 0 0
                        CHANNELS 3 Zrotation Xrotation Yrotation
                        JOINT RightHandThumb3
                        {
                          OFFSET -2.55832 0 0
                          CHANNELS 3 Zrotation Xrotation Yrotation
                          End Site
                          {
                            OFFSET -2.194 0 0
                          }
                        }
                      }
                    }
                    JOINT RightInHandIndex
                    {
                      OFFSET -3.22368 0.508421 1.97842
                      CHANNELS 3 Zrotation Xrotation Yrotation
                      JOINT RightHandIndex1
                      {
                        OFFSET -5.21684 -0.091368 0.999158
                        CHANNELS 3 Zrotation Xrotation Yrotation
                        JOINT RightHandIndex2
                        {
                          OFFSET -3.61937 0 0
                          CHANNELS 3 Zrotation Xrotation Yrotation
                          JOINT RightHandIndex3
                          {
                            OFFSET -2.0521 0 0
                            CHANNELS 3 Zrotation Xrotation Yrotation
                            End Site
                            {
                              OFFSET -1.805 0 0
                            }
                          }
                        }
                      }
                    }
                    JOINT RightInHandMiddle
                    {
                      OFFSET -3.38211 0.517263 0.756737
                      CHANNELS 3 Zrotation Xrotation Yrotation
                      JOINT RightHandMiddle1
                      {
                        OFFSET -5.17411 -0.084 0.313895
                        CHANNELS 3 Zrotation Xrotation Yrotation
                        JOINT RightHandMiddle2
                        {
                          OFFSET -3.94947 0 0
                          CHANNELS 3 Zrotation Xrotation Yrotation
                          JOINT RightHandMiddle3
                          {
                            OFFSET -2.47579 0 0
                            CHANNELS 3 Zrotation Xrotation Yrotation
                            End Site
                            {
                              OFFSET -1.975 0 0
                            }
                          }
                        }
                      }
                    }
                    JOINT RightInHandRing
                    {
                      OFFSET -3.36516 0.537895 -0.128947
                      CHANNELS 3 Zrotation Xrotation Yrotation
                      JOINT RightHandRing1
                      {
                        OFFSET -4.63474 -0.022105 -0.478947
                        CHANNELS 3 Zrotation Xrotation Yrotation
                        JOINT RightHandRing2
                        {
                          OFFSET -3.44238 0 0
                          CHANNELS 3 Zrotation Xrotation Yrotation
                          JOINT RightHandRing3
                          {
                            OFFSET -2.3881 0 0
                            CHANNELS 3 Zrotation Xrotation Yrotation
                            End Site
                            {
                              OFFSET -1.857 0 0
                            }
                          }
                        }
                      }
                    }
                    JOINT RightInHandPinky
                    {
                      OFFSET -3.16105 0.469368 -1.20179
                      CHANNELS 3 Zrotation Xrotation Yrotation
                      JOINT RightHandPinky1
                      {
                        OFFSET -4.14105 -0.022105 -1.09053
                        CHANNELS 3 Zrotation Xrotation Yrotation
                        JOINT RightHandPinky2
                        {
                          OFFSET -2.75653 0 0
                          CHANNELS 3 Zrotation Xrotation Yrotation
                          JOINT RightHandPinky3
                          {
                            OFFSET -1.74189 0 0
                            CHANNELS 3 Zrotation Xrotation Yrotation
                            End Site
                            {
                              OFFSET -1.645 0 0
                            }
                          }
                        }
                      }
                    }
                  }
                }
              }
            }
            JOINT LeftShoulder
            {
              OFFSET 3.13763 6.93537 0.265461
              CHANNELS 3 Zrotation Xrotation Yrotation
              JOINT LeftArm
              {
                OFFSET 12.4516 -0.0856895 0.350644
                CHANNELS 3 Zrotation Xrotation Yrotation
                JOINT LeftForeArm
                {
                  OFFSET 26.6962 -0.139113 0.0812581
                  CHANNELS 3 Zrotation Xrotation Yrotation
                  JOINT LeftHand
                  {
                    OFFSET 25.9561 0.0264111 -0.243705
                    CHANNELS 3 Zrotation Xrotation Yrotation
                    JOINT LeftHandThumb1
                    {
                      OFFSET 2.48905 0.190105 3.12053
                      CHANNELS 3 Zrotation Xrotation Yrotation
                      JOINT LeftHandThumb2
                      {
                        OFFSET 3.68274 0 0
                        CHANNELS 3 Zrotation Xrotation Yrotation
                        JOINT LeftHandThumb3
                        {
                          OFFSET 2.55832 0 0
                          CHANNELS 3 Zrotation Xrotation Yrotation
                          End Site
                          {
                            OFFSET 2.194 0 0
                          }
                        }
                      }
                    }
                    JOINT LeftInHandIndex
                    {
                      OFFSET 3.22368 0.508421 1.97842
                      CHANNELS 3 Zrotation Xrotation Yrotation
                      JOINT LeftHandIndex1
                      {
                        OFFSET 5.21684 -0.091368 0.999158
                        CHANNELS 3 Zrotation Xrotation Yrotation
                        JOINT LeftHandIndex2
                        {
                          OFFSET 3.61937 0 0
                          CHANNELS 3 Zrotation Xrotation Yrotation
                          JOINT LeftHandIndex3
                          {
                            OFFSET 2.0521 0 0
                            CHANNELS 3 Zrotation Xrotation Yrotation
                            End Site
                            {
                              OFFSET 1.805 0 0
                            }
                          }
                        }
                      }
                    }
                    JOINT LeftInHandMiddle
                    {
                      OFFSET 3.38211 0.517263 0.756737
                      CHANNELS 3 Zrotation Xrotation Yrotation
                      JOINT LeftHandMiddle1
                      {
                        OFFSET 5.17411 -0.084 0.313895
                        CHANNELS 3 Zrotation Xrotation Yrotation
                        JOINT LeftHandMiddle2
                        {
                          OFFSET 3.94947 0 0
                          CHANNELS 3 Zrotation Xrotation Yrotation
                          JOINT LeftHandMiddle3
                          {
                            OFFSET 2.47579 0 0
                            CHANNELS 3 Zrotation Xrotation Yrotation
                            End Site
                            {
                              OFFSET 1.975 0 0
                            }
                          }
                        }
                      }
                    }
                    JOINT LeftInHandRing
                    {
                      OFFSET 3.36516 0.537895 -0.128947
                      CHANNELS 3 Zrotation Xrotation Yrotation
                      JOINT LeftHandRing1
                      {
                        OFFSET 4.63474 -0.022105 -0.478947
                        CHANNELS 3 Zrotation Xrotation Yrotation
                        JOINT LeftHandRing2
                        {
                          OFFSET 3.44238 0 0
                          CHANNELS 3 Zrotation Xrotation Yrotation
                          JOINT LeftHandRing3
                          {
                            OFFSET 2.3881 0 0
                            CHANNELS 3 Zrotation Xrotation Yrotation
                            End Site
                            {
                              OFFSET 1.857 0 0
                            }
                          }
                        }
                      }
                    }
                    JOINT LeftInHandPinky
                    {
                      OFFSET 3.16105 0.469368 -1.20179
                      CHANNELS 3 Zrotation Xrotation Yrotation
                      JOINT LeftHandPinky1
                      {
                        OFFSET 4.14105 -0.022105 -1.09053
                        CHANNELS 3 Zrotation Xrotation Yrotation
                        JOINT LeftHandPinky2
                        {
                          OFFSET 2.75653 0 0
                          CHANNELS 3 Zrotation Xrotation Yrotation
                          JOINT LeftHandPinky3
                          {
                            OFFSET 1.74189 0 0
                            CHANNELS 3 Zrotation Xrotation Yrotation
                            End Site
                            {
                              OFFSET 1.645 0 0
                            }
                          }
                        }
                      }
                    }
                  }
                }
              }
            }
          }
        }
      }
    }
  }
}
MOTION
Frames: 2
Frame Time: 0.00833333
9.000000000000000000e+02 0.000000000000000000e+00 0.000000000000000000e+00 0.000000000000000000e+00 0.000000000000000000e+00 0.000000000000000000e+00 2.257102930472590430e+01 1.288131802442935125e+01 -6.135206667650890466e+01 -2.409833672776940361e+01 -5.198710980341909504e+01 -2.323563675062367295e+01 -9.310917507328115850e-01 2.515304876214932506e+01 -1.609334652714134606e+01 1.215339501552542245e+01 6.714725646275207183e+00 2.143383393052424424e+01 1.411585555999115016e+01 -4.635258901208250393e+01 2.491812488106099011e+00 5.112823780124651663e+00 3.186458685172052085e+01 -6.384901075387819924e-01 -1.438776864966853353e+01 -1.156718011432999837e+01 -2.243153787209216432e+01 -8.396681787307706202e+00 1.595653971543799265e+01 2.108491929051791658e+01 -1.683699170798567124e+00 4.188208531350355202e+00 5.006639830428811777e+00 -2.800281186096730934e+00 6.689674060005390110e+00 8.112584235655155851e+00 -4.460772589872762095e-02 3.568206541542928711e-02 -1.130438245037212130e+00 7.019292949503214141e-02 1.130103551179333365e+00 -7.863205325243884047e+00 -1.108687030020095499e+00 -1.807379909726147149e+00 -1.681933198415221753e+01 -3.186311403702087874e-01 -1.421516765901924906e+01 2.485413202758526552e+01 7.861142554140027983e+01 1.084873132244172922e+01 5.580150320596249713e+01 1.810313979918583627e+01 -5.730924583475248824e+01 -1.571095570516485296e+00 2.173339074954121131e+01 -1.571894655600737067e+01 -2.702503858301994200e+01 2.818400000000000105e+01 1.072940000000000005e+01 1.915919999999999845e+01 1.889594375410599740e-15 -9.220564392870122183e-16 -1.000000000000000000e+01 6.097281008319634136e-15 -3.446265667556209770e-15 -1.000000000000000000e+01 -6.206629181200983723e-15 -6.498574165260486058e-16 -5.151182407508833840e-15 1.998179999999999978e+01 8.718970000000000331e-01 2.396399999999999864e+00 2.400000000000000000e+01 1.007504678499507522e-15 1.128950324952371216e-14 2.000000000000000000e+01 1.402942933534993534e-15 2.071820434345162667e-14 -6.206629181200983723e-15 -6.498574165260486058e-16 -5.151182407508833840e-15 2.000000000000000000e+01 -7.600860863712614560e-15 1.199191171867014867e-14 2.400000000000000000e+01 -1.416600069694513783e-15 1.684378571995737064e-14 2.000000000000000000e+01 -5.747837051980860964e-15 1.210647638808540156e-14 -6.206629181200983723e-15 -6.498574165260486058e-16 -5.151182407508833840e-15 1.997479999999999833e+01 -1.025649999999999951e+00 -2.819380000000000219e+00 2.400000000000000000e+01 1.968823074751950331e-15 1.420147441343512952e-14 2.000000000000000000e+01 1.679465762635845030e-16 -1.604758660025425690e-16 -6.206629181200983723e-15 -6.498574165260486058e-16 -5.151182407508833840e-15 1.978150000000000119e+01 -3.009479999999999933e+00 -8.305149999999999366e+00 2.400000000000000000e+01 1.502371929536410549e-14 1.347464900838873813e-14 2.000000000000000000e+01 1.305066183754044629e-14 -1.560869453494243760e-15 1.441941405763084205e+01 -1.124661960962012408e+01 -2.721031238678578390e+01 -4.345362622473577829e+01 3.496347115194163990e+01 -5.912178374991573548e+01 -9.588978669711432090e-01 -8.140226737555455827e+01 3.774562420431540666e+00 -2.566741571324988413e+01 -2.064911645057210876e+01 1.290864818581110285e+01 -2.818400000000000105e+01 1.072940000000000005e+01 -1.915919999999999845e+01 -2.361572038830640578e-16 2.716438635065043425e-15 1.000000000000000000e+01 -1.669393510654319351e-15 4.518247527475451888e-15 1.000000000000000000e+01 -9.546069381606436583e-15 2.196659078146967558e-15 -1.492358544556128008e-15 -1.998179999999999978e+01 8.718970000000000331e-01 -2.396399999999999864e+00 -2.400000000000000000e+01 7.291905176945199920e-15 1.815291206751271979e-14 -2.000000000000000000e+01 -2.544521448028681872e-15 3.963660559960648559e-15 -9.546069381606436583e-15 2.196659078146967558e-15 -1.492358544556128008e-15 -2.000000000000000000e+01 -5.211714491361860690e-15 1.271673608049165514e-14 -2.400000000000000000e+01 1.692943378261430670e-15 1.690023819591031216e-14 -2.000000000000000000e+01 4.348687092393177385e-15 1.278156793893643122e-14 -9.546069381606436583e-15 2.196659078146967558e-15 -1.492358544556128008e-15 -1.997479999999999833e+01 -1.025649999999999951e+00 2.819380000000000219e+00 -2.400000000000000000e+01 -2.895125460917814222e-15 2.769836173252892357e-15 -2.000000000000000000e+01 -5.668428256816321478e-15 1.332430720718476632e-14 -9.546069381606436583e-15 2.196659078146967558e-15 -1.492358544556128008e-15 -1.978150000000000119e+01 -3.009479999999999933e+00 8.305149999999999366e+00 -2.400000000000000000e+01 4.787307398203402182e-15 2.680050409751050407e-14 -2.000000000000000000e+01 2.801662098717367653e-15 3.406471891027645125e-15
9.000000000000000000e+02 0.000000000000000000e+00 0.000000000000000000e+00 0.000000000000000000e+00 0.000000000000000000e+00 0.000000000000000000e+00 2.258706386359792262e+01 1.279258309002799798e+01 -6.176935838144101609e+01 -2.381801130164150493e+01 -5.199923029730207702e+01 -2.297100222876704123e+01 -9.742843359294657279e-01 2.511501315452542116e+01 -1.600714483641850805e+01 1.213259844294714895e+01 6.745871805957284195e+00 2.160462733250059486e+01 1.422158628410559089e+01 -4.618931795390277273e+01 2.623972396193709589e+00 4.978239794459346612e+00 3.192653663058935365e+01 -5.049985450825247302e-01 -1.433297997201022866e+01 -1.167479051715629801e+01 -2.223680979358243448e+01 -8.406902569975974515e+00 1.589153029804314698e+01 2.094425007579538445e+01 -1.688366982488944901e+00 4.170890793879420855e+00 4.971363058976103311e+00 -2.807823972688009206e+00 6.661974672310651435e+00 8.055424873526442653e+00 -5.070938612421554970e-02 3.214372316772484695e-02 -1.109421270110245938e+00 6.128156370928597441e-02 1.099306997722237167e+00 -7.682740110443625703e+00 -1.214359659597559205e+00 -1.813724909828741794e+00 -1.652209460113107298e+01 -2.804422460726526678e-01 -1.411658866098517606e+01 2.474825968966310796e+01 7.858433367399447889e+01 1.049469346224765687e+01 5.557874840195185584e+01 1.840774878220294397e+01 -5.713125482942649569e+01 -9.104836832564870974e-01 2.167872514216541546e+01 -1.574512106774341547e+01 -2.690954797772924678e+01 2.818400000000000105e+01 1.072940000000000005e+01 1.915919999999999845e+01 1.851723142758866943e-15 -9.146931488437029731e-16 -1.000000000000000000e+01 6.098965209486730666e-15 -3.463227311950821231e-15 -1.000000000000000000e+01 -6.173897342697920156e-15 -6.504489312473112108e-16 -5.126145188102236493e-15 1.998179999999999978e+01 8.718970000000000331e-01 2.396399999999999864e+00 2.400000000000000000e+01 1.026889629381690897e-15 1.130153749672059546e-14 2.000000000000000000e+01 1.385351229123818596e-15 2.061240862100611503e-14 -6.173897342697920156e-15 -6.504489312473112108e-16 -5.126145188102236493e-15 2.000000000000000000e+01 -7.613701780867117011e-15 1.200501726945239808e-14 2.400000000000000000e+01 -1.406244814205167881e-15 1.687758539480581699e-14 2.000000000000000000e+01 -5.774065609960759267e-15 1.207185606145531388e-14 -6.173897342697920156e-15 -6.504489312473112108e-16 -5.126145188102236493e-15 1.997479999999999833e+01 -1.025649999999999951e+00 -2.819380000000000219e+00 2.400000000000000000e+01 1.961940108957992907e-15 1.422667906101617082e-14 2.000000000000000000e+01 1.199444214012991091e-16 -1.919082657789259054e-16 -6.173897342697920156e-15 -6.504489312473112108e-16 -5.126145188102236493e-15 1.978150000000000119e+01 -3.009479999999999933e+00 -8.305149999999999366e+00 2.400000000000000000e+01 1.498516331555454567e-14 1.351319815610193445e-14 2.000000000000000000e+01 1.306301194073913159e-14 -1.508249336340223131e-15 1.438572367326347390e+01 -1.127516650923065633e+01 -2.732188936012122937e+01 -4.325262004911632374e+01 3.498852166221239202e+01 -5.940474479360202054e+01 -6.545339822319942158e-01 -8.102714049372065119e+01 3.904332929781333839e+00 -2.571775976868586966e+01 -2.063946399682464516e+01 1.284343245219899110e+01 -2.818400000000000105e+01 1.072940000000000005e+01 -1.915919999999999845e+01 -3.157627191246646857e-16 2.715949001535544246e-15 1.000000000000000000e+01 -1.678152602694496603e-15 4.496161473926196034e-15 1.000000000000000000e+01 -9.548981022634250933e-15 2.182856079453742272e-15 -1.471746979002581680e-15 -1.998179999999999978e+01 8.718970000000000331e-01 -2.396399999999999864e+00 -2.400000000000000000e+01 7.258823725677467439e-15 1.815394986578995733e-14 -2.000000000000000000e+01 -2.546122207306210838e-15 4.026685561252629048e-15 -9.548981022634250933e-15 2.182856079453742272e-15 -1.471746979002581680e-15 -2.000000000000000000e+01 -5.173219396713821011e-15 1.274761299259468336e-14 -2.400000000000000000e+01 1.681770251942301043e-15 1.687931310305468437e-14 -2.000000000000000000e+01 4.329324040622455403e-15 1.278330330247832671e-14 -9.548981022634250933e-15 2.182856079453742272e-15 -1.471746979002581680e-15 -1.997479999999999833e+01 -1.025649999999999951e+00 2.819380000000000219e+00 -2.400000000000000000e+01 -2.867738541807081343e-15 2.820414148211150270e-15 -2.000000000000000000e+01 -5.626293652114704452e-15 1.333994837656279543e-14 -9.548981022634250933e-15 2.182856079453742272e-15 -1.471746979002581680e-15 -1.978150000000000119e+01 -3.009479999999999933e+00 8.305149999999999366e+00 -2.400000000000000000e+01 4.810173169481191471e-15 2.676265412669326979e-14 -2.000000000000000000e+01 2.803805855851173870e-15 3.475037416220282853e-15
